<svg width="175" height="175" viewBox="0 0 175 175" fill="none" xmlns="http://www.w3.org/2000/svg">
<path d="M154.63 35H20.37C19.6165 35 19 35.5369 19 36.1932V45.7386C19 46.3949 19.6165 46.9318 20.37 46.9318H154.63C155.384 46.9318 156 46.3949 156 45.7386V36.1932C156 35.5369 155.384 35 154.63 35ZM154.63 128.068H20.37C19.6165 128.068 19 128.605 19 129.261V138.807C19 139.463 19.6165 140 20.37 140H154.63C155.384 140 156 139.463 156 138.807V129.261C156 128.605 155.384 128.068 154.63 128.068ZM154.63 81.5341H20.37C19.6165 81.5341 19 82.071 19 82.7273V92.2727C19 92.929 19.6165 93.4659 20.37 93.4659H154.63C155.384 93.4659 156 92.929 156 92.2727V82.7273C156 82.071 155.384 81.5341 154.63 81.5341Z" fill="white"/>
</svg>
