<svg xmlns="http://www.w3.org/2000/svg" width="133" height="90.03" viewBox="0 0 133 90.03">
  <defs>
    <style>
      .cls-1 {
        fill: #ec001f;
        fill-rule: evenodd;
      }
    </style>
  </defs>
  <path id="youtube_copy" data-name="youtube copy" class="cls-1" d="M2106.94,3076.59a17.342,17.342,0,0,0-10.33-5.93c-12.18-2.24-88.21-2.24-100.39,0a17.949,17.949,0,0,0-8.83,4.32c-10.72,9.62-7.36,61.21-4.77,69.56,1.09,3.62,2.49,6.23,4.25,7.94a17.424,17.424,0,0,0,8.98,4.52c10.04,2,61.73,3.13,100.55.3a17.571,17.571,0,0,0,9.24-4.57C2115.55,3143.15,2114.87,3088.67,2106.94,3076.59Zm-73.82,54.03v-36.09c13.25,6.03,23.5,11.85,35.64,18.13C2058.75,3118.03,2046.37,3124.05,2033.12,3130.62Z" transform="translate(-1980 -3068.97)"/>
</svg>
