<svg xmlns="http://www.w3.org/2000/svg" width="121.031" height="119.97" viewBox="0 0 121.031 119.97">
  <defs>
    <style>
      .cls-1 {
        fill: #ec001f;
        fill-rule: evenodd;
      }
    </style>
  </defs>
  <path id="instagram_copy" data-name="instagram copy" class="cls-1" d="M492.269,3115.93a20.068,20.068,0,1,1,20.065,19.85,19.959,19.959,0,0,1-20.065-19.85m-10.849,0a30.916,30.916,0,1,0,30.914-30.58,30.747,30.747,0,0,0-30.914,30.58m55.827-31.79a7.227,7.227,0,1,0,7.226-7.15,7.193,7.193,0,0,0-7.226,7.15m-49.238,80.26a33.719,33.719,0,0,1-11.179-2.04,19.625,19.625,0,0,1-11.428-11.31c-3.579-9.07-2.39-52.21-2.072-59.19,0.315-6.84,1.708-13.08,6.574-17.91,6.022-5.95,13.8-8.87,66.759-6.5,6.914,0.31,13.228,1.69,18.106,6.5,6.02,5.96,9,13.73,6.574,66.05a32.642,32.642,0,0,1-2.072,11.05c-5.448,13.85-17.982,15.78-71.262,13.35m-0.5-107.66c-9.848.44-18.386,2.83-25.278,9.63-6.916,6.85-9.3,15.34-9.739,25.01-0.282,6.03-1.9,51.61,2.8,63.56a30.426,30.426,0,0,0,17.608,17.42,44.715,44.715,0,0,0,14.613,2.76c53.61,2.41,73.485,1.1,81.864-20.18a43.232,43.232,0,0,0,2.8-14.46c2.446-53.3-.4-64.85-9.74-74.11-7.414-7.33-16.129-12.32-74.92-9.63" transform="translate(-452 -3056.03)"/>
</svg>
